<?xml version="1.0" standalone="no"?>
<!DOCTYPE svg PUBLIC "-//W3C//DTD SVG 20010904//EN"
 "http://www.w3.org/TR/2001/REC-SVG-20010904/DTD/svg10.dtd">
<svg version="1.0" xmlns="http://www.w3.org/2000/svg"
 width="512.000000pt" height="512.000000pt" viewBox="0 0 512.000000 512.000000"
 preserveAspectRatio="xMidYMid meet">
<metadata>
Created by potrace 1.14, written by Peter Selinger 2001-2017
</metadata>
<g transform="translate(0.000000,512.000000) scale(0.100000,-0.100000)"
fill="#000000" stroke="none">
<path d="M2509 5105 c-32 -18 -42 -41 -75 -183 -14 -62 -31 -115 -38 -117 -6
-1 -56 -8 -111 -14 -151 -17 -286 -48 -435 -97 -203 -68 -466 -199 -532 -265
-39 -38 -38 -88 1 -131 43 -48 85 -44 182 15 227 139 540 248 811 281 l46 5
-15 -62 c-8 -34 -61 -264 -119 -512 -57 -247 -107 -458 -112 -468 -6 -16 -54
5 -401 178 -240 119 -406 195 -424 195 -40 0 -97 -57 -97 -98 0 -18 74 -178
195 -422 123 -246 192 -396 185 -400 -6 -3 -218 -55 -473 -114 -254 -59 -488
-113 -519 -121 l-57 -13 5 46 c33 271 142 584 281 811 59 97 63 139 15 182
-43 39 -93 40 -131 2 -66 -67 -201 -339 -266 -537 -51 -154 -79 -282 -95 -426
-7 -58 -14 -110 -15 -116 -2 -7 -55 -24 -117 -38 -144 -34 -166 -43 -183 -77
-19 -35 -19 -63 0 -98 17 -34 39 -43 183 -77 62 -14 115 -31 117 -38 1 -6 8
-58 15 -116 44 -398 219 -810 480 -1134 363 -450 909 -752 1476 -817 55 -6
104 -13 110 -14 7 -2 24 -55 38 -117 34 -144 43 -166 77 -183 35 -19 63 -19
98 0 34 17 43 39 77 183 14 62 31 115 38 117 6 1 58 8 116 15 482 54 962 289
1314 644 354 356 581 825 637 1312 6 55 13 104 14 110 2 7 57 24 122 39 137
32 165 44 181 80 16 34 15 60 -2 94 -19 35 -36 43 -179 76 -65 15 -120 32
-122 39 -1 6 -8 55 -14 110 -46 405 -219 815 -481 1140 -362 448 -913 755
-1470 817 -58 6 -110 13 -116 14 -7 2 -24 55 -38 117 -34 144 -43 166 -77 183
-35 19 -66 18 -100 0z m446 -536 c234 -43 516 -158 726 -297 507 -334 829
-852 913 -1469 5 -36 4 -41 -12 -37 -9 3 -245 58 -524 123 -280 65 -510 120
-513 123 -3 3 82 182 190 398 121 244 195 404 195 422 0 41 -57 98 -98 98 -18
0 -178 -74 -422 -195 -216 -108 -395 -193 -398 -190 -3 2 -58 233 -123 512
-65 280 -120 516 -123 525 -5 21 6 20 189 -13z m-255 -594 l133 -574 -118
-258 c-65 -142 -125 -275 -134 -295 -9 -21 -18 -38 -21 -38 -3 0 -14 22 -26
48 -11 26 -72 158 -134 295 l-113 247 133 575 c74 316 137 575 140 575 3 0 66
-259 140 -575z m-882 -519 l287 -144 122 -268 c68 -147 121 -269 120 -271 -2
-1 -124 52 -271 120 l-268 122 -144 287 c-79 159 -144 290 -144 293 0 3 2 5 5
5 3 0 134 -65 293 -144z m1782 139 c0 -3 -65 -134 -144 -293 l-144 -287 -268
-122 c-147 -68 -269 -121 -271 -120 -1 2 53 124 120 272 l124 269 284 142
c278 139 299 149 299 139z m-1576 -900 c157 -71 286 -133 286 -136 0 -3 -11
-9 -24 -15 -14 -5 -146 -65 -295 -133 l-271 -124 -575 133 c-316 74 -575 137
-575 140 0 9 1111 268 1142 266 15 0 156 -59 312 -131z m1887 20 c271 -64 527
-123 567 -132 39 -9 72 -19 72 -23 0 -4 -33 -14 -72 -23 -40 -9 -296 -68 -568
-132 -272 -63 -503 -114 -512 -113 -22 4 -588 262 -588 268 1 7 572 268 591
269 8 1 238 -51 510 -114z m-2804 -494 c255 -59 465 -110 468 -113 3 -3 -82
-182 -190 -398 -121 -244 -195 -404 -195 -422 0 -41 57 -98 97 -98 18 0 183
76 423 195 216 107 396 193 398 190 6 -5 251 -1048 248 -1052 -1 -2 -47 4
-102 12 -486 73 -942 329 -1261 708 -253 303 -412 666 -467 1074 l-6 41 63
-14 c34 -8 270 -63 524 -123z m3478 33 c-43 -283 -155 -576 -313 -815 -334
-507 -852 -829 -1469 -913 -36 -5 -41 -4 -37 12 3 9 58 245 123 525 65 279
120 510 123 512 3 3 182 -82 398 -190 244 -121 404 -195 422 -195 41 0 98 57
98 98 0 18 -74 178 -195 422 -108 216 -193 395 -190 398 5 5 1048 250 1052
247 2 -1 -4 -46 -12 -101z m-2237 87 c-1 -5 -57 -126 -123 -271 l-120 -262
-289 -145 c-158 -79 -290 -142 -293 -140 -2 3 61 134 140 292 l144 288 264
123 c145 67 268 122 272 123 5 1 7 -3 5 -8z m702 -116 l262 -120 145 -289 c79
-158 142 -290 140 -292 -2 -3 -134 60 -293 139 l-289 145 -120 262 c-66 144
-122 267 -124 273 -5 12 -27 22 279 -118z m-464 37 c11 -26 72 -158 134 -295
l113 -247 -133 -575 c-74 -316 -137 -575 -140 -575 -3 0 -66 259 -140 575
l-133 575 113 247 c62 137 123 269 134 295 12 26 23 48 26 48 3 0 14 -22 26
-48z"/>
<path d="M991 4166 c-87 -48 -50 -186 49 -186 51 0 100 49 100 99 0 75 -83
124 -149 87z"/>
</g>
</svg>
